<?xml version="1.0" encoding="UTF-8"?>
<svg baseProfile="tiny" version="1.1" viewBox="0 0 184.3 42.5" xml:space="preserve" xmlns="http://www.w3.org/2000/svg">
<path d="m43.6 29.6s-1.3-0.6-1.4-0.8c-0.3-0.4-0.3-1-0.3-1.5v-3.1-3.7c0-0.7 0.2-2-0.9-1.4-0.1 0-2.4 1.2-2.4 1.1 0 0.1 1.2 0.1 1.4 0.2 0.8 0.4 0.5 1.7 0.5 2.5v3.8c0 1 0.1 2.2-0.9 2.6-2 0.9-1.8-2.4-1.8-3.5v-7.8-3.3c0-0.3 0.1-1.6-0.2-1.8-0.3-0.1-0.7 0.3-0.9 0.4-0.4 0.3-0.9 0.5-1.4 0.7-0.6 0.2-1.2 0.3-0.2 0.3 1.1 0 1.3 0.5 1.3 1.5v7.2 3.5c0 0.7 0.1 1.6-0.3 2.3-0.6 1-1.9 0.8-2.4-0.2-0.3-0.6-0.2-1.4-0.2-2v-7.5c0-1.8 0.1-3.6 0-5.3 0-0.9-0.3-1-1-0.5-0.1 0.1-2.3 1.2-2.3 1.1 0 0.1 1.2 0.1 1.4 0.2 0.4 0.2 0.5 0.5 0.5 0.9 0.2 2.1 0 4.4 0 6.5 0 1.9 0.1 3.8 0 5.7 0 0.9-0.7 2.4-1.8 1.8-0.9-0.5-0.9-1.6-0.9-2.5v-6.9c0-0.3 0.1-0.8-0.1-1-0.3-0.2-0.5 0.1-0.7 0.2-0.5 0.3-1 0.7-1.6 0.9-0.5 0.2-1.2 0.3-0.3 0.3 0.7 0 1.2 0.1 1.4 0.8 0.2 0.9 0 2 0 2.9v3.3c0 0.5 0 1-0.3 1.4-0.1 0.2-1.5 0.9-1.5 0.9-0.1-0.3 17.3-0.3 17.3-0.2zm-18.1-4c-0.5 0-0.9 1.2-1.1 1.5-0.4 0.7-0.9 1.3-1.6 1.7-1 0.6-2.1 0.6-3.1 0.5-0.7 0-1.4-0.2-2.1-0.4-0.3-0.1-0.9-0.2-1.1-0.4-0.1-0.2 0-0.9 0-1.1v-10.2-1.3c0-0.5 0.1-1 0.5-1.4 0.2-0.2 0.5-0.4 0.8-0.5 0.2-0.1 0.7 0 0.8-0.2-0.2-0.2-1 0-1.3 0-0.6 0-1.2 0.1-1.7 0.1-0.6 0-1.2 0-1.7-0.1-0.3 0-1.1-0.2-1.3 0 0.4 0.3 1.1 0.2 1.5 0.6 0.3 0.3 0.4 0.6 0.5 1 0.1 0.5 0.1 1 0.1 1.5v4.9s0 3.3 0 4.9c0 0.5 0 1-0.1 1.5-0.1 0.4-0.2 0.7-0.5 1-0.4 0.4-1.2 0.3-1.5 0.6 0.1 0.1 0.8 0 0.9 0h1.9 4.9c1 0 2.1-0.1 3.1 0.1 0.9 0.2 1.7 0.7 1.9-0.6-0.1-0.6 0.7-3.7 0.2-3.7zm3-8.7c1.4 0 1.3-2.1 0-2.1s-1.4 2.1 0 2.1zm12.5 0c1.4 0 1.3-2.1 0-2.1s-1.3 2.1 0 2.1zm45.3 11.1c0-0.4-1.9 0.8-2.1 0.9-1 0.4-2.1 0.6-3.1 0.3-1.8-0.4-2.9-2.1-3.1-3.8 0-0.3-0.2-1.8 0-2 0.2-0.1 0.8 0 1 0h4.1 1.6c0.2 0 0.7 0.1 0.9-0.1 0.5-0.4 0-1.6-0.3-2-0.5-0.9-1.4-1.6-2.4-1.9-4-1.3-7.6 3-6.7 6.8 0.5 2.1 2.3 3.6 4.5 3.9 1.3 0.1 2.5-0.2 3.7-0.7 0.3-0.2 1.9-0.8 1.9-1.4zm-8.3-5c0.2-1.7 1.3-3.7 3.3-3.7 0.9 0 1.7 0.5 2.2 1.4 0.3 0.6 0.7 1.8 0.1 2.4-0.5 0.5-2.1 0.2-2.7 0.2h-2.9v-0.3zm20.2 6.5c-1.4-0.4-1.4-1.6-1.4-2.9v-4.4c0-1.4-0.2-2.9-1.8-3.1-2-0.3-4.2 0.9-5.9 1.7 0-0.4 0.2-1.6-0.3-1.8-0.5 0-1.5 0.9-1.8 1s-1.1 0.2-1.2 0.4c-0.2 0.2 0.3 0.1 0.4 0.1 0.4 0 0.8 0 1.1 0.2 0.4 0.3 0.3 0.8 0.3 1.3v4.6c0 0.5 0.1 1.1-0.1 1.6-0.1 0.4-0.3 0.7-0.7 0.9-0.1 0.1-1 0.3-1 0.4h4.9c0-0.1-0.9-0.4-1-0.4-0.5-0.4-0.7-0.9-0.7-1.5v-1.5-2.9c0-0.4-0.2-1.5 0-1.9 0.2-0.5 1.8-0.8 2.3-0.9 1-0.3 2.9-0.9 3.7 0.1 0.4 0.5 0.4 1.3 0.4 2v2.7 2.3c0 0.5-0.1 1.1-0.5 1.5-0.1 0.1-1.2 0.6-1.2 0.6h4.9c-0.2-0.1-0.3-0.1-0.4-0.1zm-48.1-10.3c-1.5 0-2.9 0.7-4.1 1.5 0-0.4 0.2-1.8-0.3-1.9-0.2 0-2.9 1.7-3 1.4 0 0.1 0.7 0 0.8 0 0.6 0.1 1 0.2 1.1 0.8 0.1 0.3 0 0.6 0 0.9v10.2 1.2c0 0.5-0.1 1.1-0.5 1.5-0.1 0.1-1.2 0.5-1.2 0.6h4.9s-1.3-0.7-1.5-0.9c-0.3-0.5-0.3-1.1-0.3-1.7v-3.3c3.1 0.8 6.6-0.4 7.9-3.5 1.1-2.8-0.4-6.8-3.8-6.8zm-0.9 10.2c-1 0-2.8-0.6-3.2-1.6-0.1-0.3 0-0.7 0-1v-4.7c0-0.3-0.1-1 0-1.2 0.3-0.6 2.2-0.8 2.8-0.8 2.2 0 3.7 1.9 4 3.9 0.4 2.3-0.7 5.4-3.6 5.4zm27.4-1c-0.2 0-0.5 0.4-0.6 0.5-0.3 0.2-0.7 0.4-1.1 0.4-0.8 0-1.3-0.5-1.4-1.2-0.1-0.5 0-1.1 0-1.7v-6c0-0.7 0-0.6 0.8-0.6 0.4 0 1 0.1 1.4 0 0.3-0.1 0.7-0.1 0.3-0.4-0.2-0.1-1 0-1.2 0s-1 0.1-1.2 0c-0.2-0.2 0-2 0-2.4 0-0.3 0.2-2-0.3-2s-0.5 1.1-0.5 1.4c-0.2 0.9-0.6 1.7-1.3 2.3-0.4 0.3-0.8 0.6-1.3 0.6-0.2 0-0.9 0.1-1-0.1-0.1-0.1 0-0.9 0-1v-1.7c0-0.3 0.1-1.9-0.5-1.5-0.4 0.3-0.4 1.6-0.5 2.1-0.3 0.8-0.8 1.4-1.5 1.8-0.3 0.2-1.5 0.5-0.9 0.8 0.2 0.1 1 0 1.3 0 0.8 0 0.8-0.1 0.8 0.7v6.5c0 0.7 0 1.5 0.4 2.2 1.1 1.5 3.3 0.7 4.2-0.5 0.5 1.1 1.5 1.6 2.6 1.3 0.5-0.1 1-0.4 1.4-0.8-0.2 0.1 0.5-0.7 0.1-0.7zm-4.6 0c-0.5 0.3-0.8 0.8-1.5 0.9-0.8 0.1-1.4-0.3-1.6-1.1-0.1-0.5 0-1.1 0-1.6v-5.8c0-0.4-0.1-0.9 0.1-1s1 0 1.2 0c0.4 0 1-0.1 1.4 0 0.5 0.1 0.3 0.2 0.3 0.8v2.8 3.2c0.1 0.4 0.3 1.7 0.1 1.8zm-7.6-0.4v-5.5-1.9c0-0.7 0.2-1.2-0.6-1.2-0.5 0-1.1 0.2-1.6 0.3-0.2 0-0.9 0-1.1 0.2 0 0.1 1.1 0.3 1.3 0.4 0.4 0.2 0.5 0.6 0.6 1 0.1 0.6 0 1.3 0 2v3c0 0.4 0.1 1 0 1.3-0.3 0.5-1.3 0.8-1.7 1-0.7 0.3-1.5 0.6-2.3 0.6-1.4 0-2-0.9-2.1-2.2-0.1-1.5 0-3.1 0-4.6v-2c0-0.9 0-1.1-1-0.9-0.4 0.1-2 0-2.3 0.4 0 0.1 0.9 0.2 1 0.3 0.5 0.2 0.7 0.4 0.8 0.9 0.1 0.3 0 0.7 0 1.1v4.4c0 1.3 0 2.7 1.4 3.3 2.1 0.9 4.5-0.8 6.1-2 0 0.7-0.2 1.9 0.6 2.1 0.2 0.1 2.7-0.6 2.7-0.6-0.2-0.2-0.9-0.1-1.2-0.2-0.4-0.3-0.6-0.7-0.6-1.2z"/>
<path d="m115.7 5.4c-2.2-1.6-5.3 1.3-6.1 3.2-0.4 1-0.5 2.6-1.9 2.2-0.9-0.3-2.2-1.3-1.6-2.3 0.2-0.5 1-0.8 0.2-1.1-1.4-0.6-1.7 1.1-1.5 2.1 0.3 1 0.9 1.8 1.8 2.3 0.6 0.3 2.1 0.2 2.4 1s-1.4 0.9-2 1c-1 0.3-2.1 0.5-3.1 0.9-2.3 0.9-4.2 2.5-5 4.9-0.7 2.1-0.8 4.6 0.5 6.4 1.5 2.2 3.8 3.3 6.3 3.4 1.3 0.1 2.7 0.1 4-0.4 0.9-0.3 2.7-1.2 2.5 0.5-0.1 0.9-0.5 1.7-0.8 2.6-0.4 1.4-0.9 2.8-1.3 4.2-0.3 1-0.8 2.1-0.9 3.1-0.1 1.2 0.8-0.2 1-0.6 0.9-1.6 1.3-3.4 1.9-5.2 0.5-1.7 1.1-3.4 1.6-5.1 0.2-0.6 0.9-2.3-0.4-2.2-0.3 0-0.6 0.3-0.9 0.4-0.7 0.3-1.5 0.7-2.2 1-4.1 1.5-10 0.2-10.7-4.8-0.4-2.7 1.2-5.7 3.7-6.8 1.5-0.7 3-1.4 4.7-1.4 1.6 0 3.2 0.5 4.7 0.7 0.5 0.1 1.3 0.2 1.1-0.7-0.1-0.5-0.9-0.8-1.4-1s-1.3-0.3-1.6-0.7 0-1.1 0.3-1.5c0.4-0.5 1.2-0.8 1.7-1.2 0.6-0.4 1.2-0.9 1.7-1.5 0.6-0.6 2.5-2.5 1.3-3.4zm-1.4 2.7c-0.6 0.9-1.6 1.7-2.6 2.1-1.5 0.6-1.3-1-0.8-1.9 0.6-1 1.6-2 2.8-2.1 1.5-0.2 1.2 1 0.6 1.9z" fill="#7A1800"/>
<path d="m122.9 15.6c-0.6-0.3-1.1 2.4-1.2 2.8-0.4 1.2-0.8 2.4-1.3 3.6-0.9 2.1-2.1 4.2-3.5 6 0-1.1 0.4-2.1 0.6-3.2-0.9 0.2-1 0.6-1.3 1.5-0.2 1-0.5 2.1-0.5 3s0.7 1.2 1.2 0.4c0.7-0.9 1.2-2 1.8-3 1.3-2.2 2.5-4.5 3.4-7 0.2-0.2 1.7-3.7 0.8-4.1zm49 14.9c-0.9-0.2-1.8-0.3-2.6-0.7-1.3-0.8 0-1.1 0.7-1.7 0.8-0.7 1.5-1.6 1.4-2.7-0.1-1.2-1.3-1.3-2.2-1.2-1 0.1-2 0.6-2.5 1.5-0.3 0.5-0.3 1.1-0.3 1.6 0 0.2 0.1 0.8 0 1-0.8 0.7-1.2-1.1-1.7-1.2s-0.6 0.5-0.7 0.8c-0.3 0.6-0.9 0.6-1.6 0.3-0.8-0.3-1.6-0.9-2-1.7-0.2-0.4-0.4-1-0.4-1.4 0.1-0.6 0.9-1.3 1.3-1.7 1.3-1.5 2.4-3.3 3.2-5.1 0.3-0.8 0.8-1.7 0.7-2.6 0-1.3-1.3-1.6-2.2-0.8-0.8 0.7-1.5 1.8-2 2.7-0.7 1.1-1.4 2.3-1.7 3.5-0.3 1.1 0 2.4-0.5 3.4-0.4 0.9-1.5 1.4-2.3 1.8-1.5 0.7-4.4 2.2-6.1 1.7-0.4-0.1-0.7-0.4-1.1-0.1-0.5 0.4-0.1 0.7 0.1 1.1 0.7 1.1-0.3 1.9-1.5 1.8-0.7-0.1-2.2-1.1-1.9-2.1 0.2-0.7 1.9-0.9 2.5-1.1 2.1-0.9 3.8-2.7 5.2-4.5 1.5-1.8 3-4 3.6-6.2 0.2-0.8 0.4-2.1-0.3-2.8-0.8-0.8-2.1-0.4-3 0-2 0.9-3.5 2.8-4.8 4.4-1.5 1.9-2.9 3.8-3.8 6.1-0.3 0.7-0.4 1.3-0.5 2-0.1 0.3-0.1 0.8-0.3 1.1-0.4 0.4-1 0.4-1.5 0.4-0.2 0-0.6 0.1-0.8 0-0.4-0.1-0.3 0.1-0.5-0.3-0.1-0.4 0.2-1.1 0.1-1.5s-0.2-0.8-0.5-1.1c-0.8-0.6-2.2-0.1-2.9 0.3-0.9 0.5-1.6 1.3-1.8 2.4-0.1 0.9 0 1.4-1 1.4s-2.3-0.2-2.8-1.2c-0.6-1.1 0.2-2.6 0.7-3.5 1.2-2.6 2.3-4.9 2.6-7.8 0.2-2.3-0.1-4.9-1.6-6.7-1.6-1.8-4.2-2.3-6.5-2.1-5.1 0.6-7.5 5.7-9.3 9.8-0.2 0.6-2.6 6.2-1.7 6.4 0.6 0.2 1.2-2.6 1.3-3 0.3-1 0.6-2 1.1-3 2-4.6 4.6-9.5 10.3-9.3 2.4 0.1 4.5 1.3 5.1 3.8 0.6 2.4 0.4 5.1-0.4 7.5s-2.6 4.4-2.7 7c-0.1 2.2 1.6 3 3.6 3 0.6 0 1.3-0.1 1.9-0.1 0.5 0 1.1 0.2 1.6 0.1 0.8-0.1 1.1-0.7 1.8-1 0.5-0.2 1.1-0.2 1.6-0.2 0.6-0.1 1.2-0.2 1.8-0.2 0.9 0.1 1 1.3 1.6 1.9 0.7 0.8 1.7 1.2 2.8 1s1.5-0.8 1.8-1.8c0.4-1.1 1.1-1 2.1-1.3 1.3-0.4 2.6-0.8 3.8-1.5 0.5-0.3 1-0.6 1.5-1 0.4-0.3 0.7-0.6 1.1-0.3s0.5 1.1 0.8 1.5c0.3 0.5 0.7 0.9 1.2 1.2 1 0.6 2.2 0.5 3.3 0.4 0.6 0 1.3 0.1 1.9 0.2 0.7 0 1 0.3 1.6 0.7 0.9 0.7 2 1.2 3.2 1.2 0.3 0 0.6 0 0.9-0.3 0.4 0.2 0.4-0.2 0.2-0.2zm-30.8-3.5c-0.1 0.2-0.4 0.2-0.5 0.4-0.3 0.3-0.3 0.6-0.6 0.9-0.4 0.5-1.8 1.5-2.2 0.5-0.3-0.8 0.5-1.7 1.1-2.1 0.4-0.4 2.6-0.9 2.2 0.3zm4.7 0.7c-0.3-0.2 0.3-1.7 0.3-2 0.3-0.9 0.6-1.7 1.1-2.5 0.9-1.5 1.9-3 2.9-4.3 0.7-0.9 5.1-5.8 6.4-3.4 0.5 0.9-0.4 2.4-0.9 3.2-0.8 1.4-1.6 2.7-2.6 4s-2.2 2.6-3.5 3.5c-0.6 0.4-1.3 0.7-2 1-0.1 0-1.4 0.7-1.7 0.5zm14.1-4.6c0.1-1.6 0.7-3 1.5-4.4 0.3-0.6 0.6-1.2 1-1.7 0.2-0.3 1.1-1.5 1.5-1.4 0.9 0.2-1 3.9-1.2 4.3-0.5 0.8-1 1.6-1.6 2.3-0.2 0.4-1.3 1.9-1.2 0.9zm8.2 4.8c-0.8 0.2-0.9-1-0.7-1.6 0.3-0.7 1-1.2 1.8-1.1 2.4 0.1 0.1 2.5-1.1 2.7z"/>
</svg>
