<svg xmlns="http://www.w3.org/2000/svg" width="86.436" height="18.449" overflow="visible"><path d="M16.82 13.13s-.705-.325-.76-.434c-.162-.217-.162-.543-.162-.814V8.193c0-.38.108-1.085-.489-.76-.054 0-1.302.651-1.302.597 0 .054.651.054.76.109.434.217.271.922.271 1.356v2.062c0 .543.054 1.194-.488 1.411-1.086.488-.977-1.303-.977-1.899V5.046c0-.163.054-.868-.109-.977-.162-.054-.38.163-.488.217-.217.163-.488.271-.76.38-.325.108-.65.163-.108.163.598 0 .706.271.706.814v5.806c0 .38.054.868-.163 1.248-.325.543-1.031.434-1.303-.108-.162-.325-.108-.76-.108-1.085v-4.07c0-.977.055-1.954 0-2.876 0-.488-.162-.542-.542-.271-.055.054-1.248.651-1.248.596 0 .054.651.054.76.108.217.109.271.271.271.488.108 1.14 0 2.388 0 3.527 0 1.031.054 2.062 0 3.093 0 .488-.38 1.302-.978.977-.488-.271-.488-.868-.488-1.356V7.976c0-.163.055-.434-.054-.542-.163-.109-.271.054-.379.108-.272.163-.543.38-.869.488-.271.109-.651.163-.163.163.38 0 .651.054.76.434.108.488 0 1.085 0 1.573v1.791c0 .271 0 .542-.163.76-.054.107-.813.488-.813.488-.055-.162 9.386-.162 9.386-.109zm-9.821-2.17c-.271 0-.488.65-.597.814-.217.379-.488.705-.868.922-.542.326-1.14.326-1.682.271-.38 0-.76-.109-1.14-.217-.163-.055-.488-.109-.597-.218-.055-.108 0-.488 0-.597V5.697c0-.271.054-.542.271-.76.108-.108.271-.217.434-.271.108-.055.38 0 .435-.109-.108-.108-.543 0-.706 0-.325 0-.65.054-.922.054-.326 0-.651 0-.923-.054-.162 0-.597-.108-.705 0 .217.163.597.109.813.326.163.163.218.326.271.542.057.272.057.544.057.815v5.318c0 .271 0 .543-.055.813-.054.218-.108.381-.271.543-.217.216-.651.163-.814.326.055.054.435 0 .488 0h3.69c.543 0 1.14-.055 1.683.054.488.108.922.38 1.03-.325-.054-.327.38-2.009.108-2.009zm1.628-4.72c.76 0 .706-1.139 0-1.139-.705 0-.76 1.139 0 1.139zm6.782 0c.76 0 .706-1.139 0-1.139-.705 0-.705 1.139 0 1.139zm24.58 6.023c0-.218-1.031.434-1.14.488-.543.217-1.14.325-1.682.162-.977-.217-1.574-1.139-1.683-2.062 0-.163-.108-.977 0-1.085.108-.055.435 0 .543 0h3.093c.108 0 .38.054.488-.055.271-.217 0-.868-.163-1.085a2.253 2.253 0 0 0-1.302-1.031c-2.171-.705-4.124 1.628-3.636 3.69.271 1.139 1.248 1.953 2.441 2.115.706.055 1.356-.108 2.008-.379.165-.107 1.033-.433 1.033-.758zM35.485 9.55c.108-.922.706-2.008 1.791-2.008.488 0 .922.271 1.193.76.163.326.38.977.055 1.302-.271.271-1.14.108-1.465.108h-1.574V9.55zm10.961 3.527c-.76-.218-.76-.868-.76-1.573V9.116c0-.76-.108-1.574-.977-1.682-1.085-.163-2.279.488-3.201.922 0-.217.108-.868-.163-.977-.271 0-.813.488-.977.542s-.597.108-.651.217c-.108.108.163.054.217.054.218 0 .435 0 .598.108.217.163.162.434.162.706v2.496c0 .271.055.597-.054.867a.687.687 0 0 1-.38.488c-.055.055-.543.164-.543.218h2.659c0-.054-.488-.218-.543-.218a.976.976 0 0 1-.38-.813V9.658c0-.217-.108-.814 0-1.031.108-.271.977-.434 1.248-.488.543-.163 1.573-.489 2.008.054.217.271.217.705.217 1.085v2.713c0 .271-.055.597-.271.813-.054.054-.651.325-.651.325h2.659c-.108-.052-.163-.052-.217-.052zM20.348 7.488c-.814 0-1.574.38-2.225.814 0-.217.108-.977-.163-1.031-.108 0-1.573.922-1.628.759 0 .054.38 0 .435 0 .325.054.542.109.597.434.054.163 0 .326 0 .488V15.137c0 .271-.055.598-.271.814-.055.054-.651.271-.651.325H19.1s-.706-.38-.814-.488c-.162-.271-.162-.597-.162-.923v-1.79c1.682.435 3.581-.218 4.286-1.899.596-1.518-.218-3.688-2.062-3.688zm-.489 5.535c-.543 0-1.52-.326-1.736-.869-.055-.162 0-.379 0-.543V9.062c0-.163-.055-.543 0-.651.162-.326 1.193-.434 1.519-.434 1.194 0 2.008 1.031 2.171 2.116.216 1.247-.38 2.93-1.954 2.93zm14.867-.543c-.108 0-.271.217-.325.271-.163.107-.38.217-.597.217-.435 0-.705-.271-.76-.651-.055-.271 0-.597 0-.923V8.139c0-.38 0-.326.435-.326.217 0 .542.054.759 0 .163-.054.38-.054.163-.217-.108-.054-.543 0-.651 0s-.542.054-.65 0c-.109-.108 0-1.085 0-1.302 0-.163.108-1.085-.163-1.085s-.271.597-.271.76c-.108.488-.325.922-.705 1.248-.217.163-.435.326-.706.326-.108 0-.488.054-.542-.054-.055-.054 0-.488 0-.542v-.924c0-.163.054-1.031-.271-.814-.217.163-.217.868-.271 1.139-.162.434-.434.76-.813.977-.163.108-.814.271-.488.434.108.054.542 0 .705 0 .435 0 .435-.055.435.38v3.526c0 .38 0 .814.217 1.193.597.814 1.79.381 2.278-.271.271.597.814.868 1.411.705.271-.054.543-.217.76-.435-.113.057.267-.377.05-.377zm-2.496 0c-.271.162-.435.434-.814.488-.434.055-.76-.163-.868-.598-.054-.271 0-.596 0-.867V8.356c0-.217-.054-.488.055-.542s.542 0 .65 0c.218 0 .543-.054.76 0 .271.054.163.108.163.434V11.504c.054.216.163.921.054.976zm-4.124-.217V8.248c0-.38.108-.651-.325-.651-.271 0-.598.108-.868.163-.109 0-.489 0-.598.108 0 .054.598.163.706.217.217.109.271.326.325.543.055.325 0 .705 0 1.085v1.628c0 .217.055.542 0 .705-.163.271-.705.435-.923.543-.379.163-.813.325-1.247.325-.76 0-1.086-.488-1.14-1.193-.055-.814 0-1.682 0-2.496V8.139c0-.489 0-.597-.543-.489-.217.054-1.085 0-1.248.217 0 .054.488.108.543.163.271.109.38.217.434.488.055.163 0 .38 0 .597v2.388c0 .705 0 1.465.76 1.79 1.14.488 2.441-.435 3.31-1.085 0 .38-.108 1.031.326 1.139.108.055 1.465-.324 1.465-.324-.108-.109-.488-.055-.651-.109a.774.774 0 0 1-.326-.651z"/><path fill="#FFF" d="M55.941 0c-1.193-.868-2.876.706-3.31 1.736-.217.542-.271 1.411-1.031 1.194-.488-.163-1.193-.706-.868-1.248.108-.271.543-.434.108-.597-.76-.326-.922.597-.813 1.139.162.542.488.977.977 1.248.325.163 1.14.108 1.302.542.163.434-.759.488-1.085.542-.542.163-1.14.271-1.682.489-1.248.488-2.279 1.356-2.713 2.658-.38 1.14-.435 2.496.271 3.473.814 1.193 2.063 1.791 3.419 1.846.705.054 1.465.054 2.17-.218.488-.163 1.465-.651 1.356.271-.054.488-.271.923-.434 1.411-.217.76-.488 1.519-.705 2.278-.163.542-.435 1.14-.488 1.683-.055.65.434-.109.542-.326.488-.868.705-1.845 1.031-2.821.271-.923.597-1.845.868-2.768.108-.325.488-1.247-.217-1.193-.163 0-.326.163-.489.217-.379.163-.813.38-1.193.543-2.225.813-5.426.108-5.806-2.604-.217-1.465.651-3.093 2.008-3.69.813-.38 1.628-.759 2.55-.759.868 0 1.736.271 2.551.379.271.054.705.109.597-.379-.055-.271-.488-.435-.76-.543s-.705-.163-.868-.38c-.163-.217 0-.597.163-.813.217-.271.65-.435.922-.651.326-.217.651-.488.923-.814.325-.326 1.356-1.357.704-1.845zm-.759 1.465a3.222 3.222 0 0 1-1.41 1.14c-.814.326-.706-.542-.435-1.031.325-.543.868-1.085 1.52-1.14.813-.108.651.543.325 1.031zM59.848 5.535c-.325-.163-.597 1.302-.65 1.519-.218.651-.435 1.302-.706 1.954a15.056 15.056 0 0 1-1.898 3.256c0-.598.217-1.141.325-1.736-.488.107-.543.325-.705.813-.108.542-.271 1.14-.271 1.628s.38.65.651.217c.38-.488.65-1.085.977-1.628.705-1.193 1.356-2.441 1.845-3.798.106-.11.92-2.009.432-2.225zm26.588 8.084c-.488-.107-.978-.162-1.411-.379-.705-.435 0-.598.38-.923.434-.38.813-.868.76-1.465-.055-.651-.706-.706-1.194-.651-.542.055-1.085.326-1.356.814-.162.271-.162.596-.162.867 0 .109.054.435 0 .543-.435.38-.651-.597-.923-.65-.271-.055-.325.271-.38.434-.162.325-.488.325-.868.162-.434-.162-.868-.488-1.085-.922-.108-.217-.217-.543-.217-.76.054-.325.488-.705.705-.922A11.353 11.353 0 0 0 82.42 7c.163-.434.435-.922.38-1.411 0-.706-.705-.868-1.193-.434-.435.38-.814.977-1.086 1.465-.38.597-.759 1.248-.922 1.899-.163.597 0 1.302-.271 1.845-.217.488-.813.759-1.248.977-.813.38-2.388 1.193-3.31.923-.217-.055-.38-.218-.597-.055-.271.217-.055.38.054.597.38.597-.162 1.03-.813.977-.38-.054-1.194-.597-1.031-1.14.108-.379 1.031-.488 1.356-.597 1.14-.488 2.063-1.465 2.821-2.441.814-.977 1.628-2.17 1.954-3.364.108-.434.217-1.139-.163-1.519-.435-.434-1.14-.217-1.628 0-1.085.488-1.899 1.519-2.604 2.387-.813 1.031-1.573 2.062-2.062 3.31-.163.38-.217.705-.271 1.086-.055.162-.055.434-.163.597-.217.217-.542.217-.813.217-.108 0-.326.054-.435 0-.217-.054-.162.054-.271-.163-.055-.217.108-.597.054-.813-.054-.218-.108-.435-.271-.597-.434-.326-1.193-.055-1.573.162-.488.271-.868.705-.977 1.303-.055.488 0 .76-.543.76-.542 0-1.248-.109-1.519-.651-.326-.597.108-1.411.38-1.899.65-1.41 1.247-2.658 1.41-4.232.108-1.248-.054-2.659-.868-3.635-.868-.977-2.278-1.248-3.526-1.14-2.768.326-4.069 3.093-5.047 5.317-.108.326-1.41 3.364-.922 3.473.325.108.651-1.411.705-1.628.163-.542.326-1.085.597-1.627 1.086-2.496 2.496-5.155 5.589-5.046 1.303.055 2.441.706 2.768 2.062.325 1.302.217 2.767-.217 4.069-.435 1.302-1.411 2.387-1.466 3.798-.054 1.194.868 1.628 1.954 1.628.325 0 .705-.055 1.03-.055.271 0 .597.109.868.055.435-.055.597-.38.977-.543.271-.108.598-.108.868-.108.326-.054.651-.108.977-.108.489.055.543.705.868 1.031.38.434.923.65 1.52.542s.814-.435.977-.977c.218-.597.597-.542 1.14-.705.705-.218 1.411-.435 2.062-.813.271-.164.543-.326.814-.543.217-.163.38-.326.597-.163s.271.597.435.813c.162.271.379.488.65.651.543.325 1.194.271 1.791.218.325 0 .705.054 1.03.107.38 0 .543.164.868.381.489.379 1.086.65 1.736.65.163 0 .326 0 .489-.162.215.104.215-.112.107-.112zM69.724 11.72c-.055.108-.218.108-.271.217-.163.163-.163.326-.326.488-.217.271-.977.814-1.193.271-.163-.434.271-.922.597-1.14.216-.216 1.409-.487 1.193.164zm2.549.38c-.163-.108.163-.923.163-1.085.162-.488.325-.923.597-1.357a24.979 24.979 0 0 1 1.573-2.333c.38-.489 2.768-3.147 3.473-1.845.271.489-.217 1.302-.488 1.736-.434.76-.868 1.465-1.411 2.17-.542.706-1.193 1.411-1.898 1.9-.326.217-.705.379-1.085.542-.055.001-.76.38-.924.272zm7.651-2.496c.055-.868.38-1.628.814-2.388.162-.325.325-.651.542-.922.108-.163.597-.814.814-.759.488.108-.543 2.116-.651 2.333-.271.434-.543.868-.868 1.248-.108.217-.705 1.03-.651.488zm4.449 2.604c-.434.108-.488-.543-.38-.868.163-.38.543-.651.977-.597 1.302.054.054 1.357-.597 1.465z"/></svg>